<?xml version="1.0" encoding="UTF-8" standalone="no"?>
<!DOCTYPE svg PUBLIC "-//W3C//DTD SVG 1.1//EN"
 "http://www.w3.org/Graphics/SVG/1.1/DTD/svg11.dtd">
<!-- Generated by graphviz version 2.42.3 (20191010.1750)
 -->
<!-- Title: snakemake_dag Pages: 1 -->
<svg width="302pt" height="188pt"
 viewBox="0.00 0.00 302.00 188.00" xmlns="http://www.w3.org/2000/svg" xmlns:xlink="http://www.w3.org/1999/xlink">
<g id="graph0" class="graph" transform="scale(1 1) rotate(0) translate(4 184)">
<title>snakemake_dag</title>
<polygon fill="white" stroke="transparent" points="-4,4 -4,-184 298,-184 298,4 -4,4"/>
<!-- 0 -->
<g id="node1" class="node">
<title>0</title>
<path fill="none" stroke="#d85656" stroke-width="2" stroke-dasharray="5,2" d="M162,-36C162,-36 132,-36 132,-36 126,-36 120,-30 120,-24 120,-24 120,-12 120,-12 120,-6 126,0 132,0 132,0 162,0 162,0 168,0 174,-6 174,-12 174,-12 174,-24 174,-24 174,-30 168,-36 162,-36"/>
<text text-anchor="middle" x="147" y="-15.5" font-family="sans" font-size="10.00">all</text>
</g>
<!-- 1 -->
<g id="node2" class="node">
<title>1</title>
<path fill="none" stroke="#afd856" stroke-width="2" stroke-dasharray="5,2" d="M74,-108C74,-108 12,-108 12,-108 6,-108 0,-102 0,-96 0,-96 0,-84 0,-84 0,-78 6,-72 12,-72 12,-72 74,-72 74,-72 80,-72 86,-78 86,-84 86,-84 86,-96 86,-96 86,-102 80,-108 74,-108"/>
<text text-anchor="middle" x="43" y="-87.5" font-family="sans" font-size="10.00">samtools_sort</text>
</g>
<!-- 1&#45;&gt;0 -->
<g id="edge1" class="edge">
<title>1&#45;&gt;0</title>
<path fill="none" stroke="grey" stroke-width="2" d="M68.44,-71.88C81.79,-62.89 98.32,-51.76 112.78,-42.03"/>
<polygon fill="grey" stroke="grey" stroke-width="2" points="115.12,-44.68 121.46,-36.19 111.21,-38.87 115.12,-44.68"/>
</g>
<!-- 2 -->
<g id="node3" class="node">
<title>2</title>
<path fill="none" stroke="#56d8a9" stroke-width="2" stroke-dasharray="5,2" d="M63.5,-180C63.5,-180 22.5,-180 22.5,-180 16.5,-180 10.5,-174 10.5,-168 10.5,-168 10.5,-156 10.5,-156 10.5,-150 16.5,-144 22.5,-144 22.5,-144 63.5,-144 63.5,-144 69.5,-144 75.5,-150 75.5,-156 75.5,-156 75.5,-168 75.5,-168 75.5,-174 69.5,-180 63.5,-180"/>
<text text-anchor="middle" x="43" y="-165" font-family="sans" font-size="10.00">bwa_map</text>
<text text-anchor="middle" x="43" y="-154" font-family="sans" font-size="10.00">sample: A</text>
</g>
<!-- 2&#45;&gt;1 -->
<g id="edge4" class="edge">
<title>2&#45;&gt;1</title>
<path fill="none" stroke="grey" stroke-width="2" d="M43,-143.7C43,-135.98 43,-126.71 43,-118.11"/>
<polygon fill="grey" stroke="grey" stroke-width="2" points="46.5,-118.1 43,-108.1 39.5,-118.1 46.5,-118.1"/>
</g>
<!-- 3 -->
<g id="node4" class="node">
<title>3</title>
<path fill="none" stroke="#afd856" stroke-width="2" stroke-dasharray="5,2" d="M178,-108C178,-108 116,-108 116,-108 110,-108 104,-102 104,-96 104,-96 104,-84 104,-84 104,-78 110,-72 116,-72 116,-72 178,-72 178,-72 184,-72 190,-78 190,-84 190,-84 190,-96 190,-96 190,-102 184,-108 178,-108"/>
<text text-anchor="middle" x="147" y="-87.5" font-family="sans" font-size="10.00">samtools_sort</text>
</g>
<!-- 3&#45;&gt;0 -->
<g id="edge2" class="edge">
<title>3&#45;&gt;0</title>
<path fill="none" stroke="grey" stroke-width="2" d="M147,-71.7C147,-63.98 147,-54.71 147,-46.11"/>
<polygon fill="grey" stroke="grey" stroke-width="2" points="150.5,-46.1 147,-36.1 143.5,-46.1 150.5,-46.1"/>
</g>
<!-- 4 -->
<g id="node5" class="node">
<title>4</title>
<path fill="none" stroke="#56d8a9" stroke-width="2" stroke-dasharray="5,2" d="M167.5,-180C167.5,-180 126.5,-180 126.5,-180 120.5,-180 114.5,-174 114.5,-168 114.5,-168 114.5,-156 114.5,-156 114.5,-150 120.5,-144 126.5,-144 126.5,-144 167.5,-144 167.5,-144 173.5,-144 179.5,-150 179.5,-156 179.5,-156 179.5,-168 179.5,-168 179.5,-174 173.5,-180 167.5,-180"/>
<text text-anchor="middle" x="147" y="-165" font-family="sans" font-size="10.00">bwa_map</text>
<text text-anchor="middle" x="147" y="-154" font-family="sans" font-size="10.00">sample: B</text>
</g>
<!-- 4&#45;&gt;3 -->
<g id="edge5" class="edge">
<title>4&#45;&gt;3</title>
<path fill="none" stroke="grey" stroke-width="2" d="M147,-143.7C147,-135.98 147,-126.71 147,-118.11"/>
<polygon fill="grey" stroke="grey" stroke-width="2" points="150.5,-118.1 147,-108.1 143.5,-118.1 150.5,-118.1"/>
</g>
<!-- 5 -->
<g id="node6" class="node">
<title>5</title>
<path fill="none" stroke="#afd856" stroke-width="2" stroke-dasharray="5,2" d="M282,-108C282,-108 220,-108 220,-108 214,-108 208,-102 208,-96 208,-96 208,-84 208,-84 208,-78 214,-72 220,-72 220,-72 282,-72 282,-72 288,-72 294,-78 294,-84 294,-84 294,-96 294,-96 294,-102 288,-108 282,-108"/>
<text text-anchor="middle" x="251" y="-87.5" font-family="sans" font-size="10.00">samtools_sort</text>
</g>
<!-- 5&#45;&gt;0 -->
<g id="edge3" class="edge">
<title>5&#45;&gt;0</title>
<path fill="none" stroke="grey" stroke-width="2" d="M225.56,-71.88C212.21,-62.89 195.68,-51.76 181.22,-42.03"/>
<polygon fill="grey" stroke="grey" stroke-width="2" points="182.79,-38.87 172.54,-36.19 178.88,-44.68 182.79,-38.87"/>
</g>
<!-- 6 -->
<g id="node7" class="node">
<title>6</title>
<path fill="none" stroke="#56d8a9" stroke-width="2" stroke-dasharray="5,2" d="M271.5,-180C271.5,-180 230.5,-180 230.5,-180 224.5,-180 218.5,-174 218.5,-168 218.5,-168 218.5,-156 218.5,-156 218.5,-150 224.5,-144 230.5,-144 230.5,-144 271.5,-144 271.5,-144 277.5,-144 283.5,-150 283.5,-156 283.5,-156 283.5,-168 283.5,-168 283.5,-174 277.5,-180 271.5,-180"/>
<text text-anchor="middle" x="251" y="-165" font-family="sans" font-size="10.00">bwa_map</text>
<text text-anchor="middle" x="251" y="-154" font-family="sans" font-size="10.00">sample: C</text>
</g>
<!-- 6&#45;&gt;5 -->
<g id="edge6" class="edge">
<title>6&#45;&gt;5</title>
<path fill="none" stroke="grey" stroke-width="2" d="M251,-143.7C251,-135.98 251,-126.71 251,-118.11"/>
<polygon fill="grey" stroke="grey" stroke-width="2" points="254.5,-118.1 251,-108.1 247.5,-118.1 254.5,-118.1"/>
</g>
</g>
</svg>
